<svg width="1440" height="720" xmlns="http://www.w3.org/2000/svg" xmlns:xlink="http://www.w3.org/1999/xlink" overflow="hidden"><defs><clipPath id="clip0"><rect x="0" y="0" width="1440" height="720"/></clipPath></defs><g clip-path="url(#clip0)"><rect x="0" y="0" width="1440" height="720" fill="#25295D"/><path d="M0 0 720 0 720 480 0 480Z" fill="#BF1E24" fill-rule="evenodd"/><path d="M559.193 125.327 520.61 247.676 636 303.82 507.662 304.95 489.897 432 449.168 310.348 322.794 332.719 425.956 256.409 365.618 143.184 470.108 217.671ZM263.793 34 263.688 34.1664C324.293 34.1635 381.132 63.5498 416.152 112.99 387.223 85.8045 349.029 70.6371 309.323 70.5651 222.963 70.5678 152.958 140.545 152.958 226.864 152.958 313.183 222.963 383.16 309.323 383.162 334.497 383.137 359.295 377.036 381.605 365.379 348.336 392.51 306.73 407.355 263.793 407.419 160.63 407.419 77 323.826 77 220.709 77 117.592 160.63 34 263.793 34Z" fill="#FFFFFF" fill-rule="evenodd"/></g></svg>