<svg width="720" height="720" xmlns="http://www.w3.org/2000/svg" xmlns:xlink="http://www.w3.org/1999/xlink" overflow="hidden"><defs><clipPath id="clip0"><rect x="0" y="0" width="720" height="720"/></clipPath></defs><g clip-path="url(#clip0)"><rect x="0" y="0" width="720" height="720" fill="#FFFFFF" fill-opacity="0"/><path d="M360 7C554.957 7 713 165.043 713 360 713 554.957 554.957 713 360 713 165.043 713 7 554.957 7 360 7 165.043 165.043 7 360 7Z" fill="#CC0000" fill-rule="evenodd"/><path d="M178.862 662.538 541.138 662.538 528.261 670.367C478.243 697.556 420.924 713 360 713 299.076 713 241.757 697.556 191.739 670.367ZM70.5386 561.615 649.461 561.615 632.392 584.457C625.198 593.18 617.594 601.551 609.609 609.541L606.821 612.077 113.18 612.077 110.391 609.541C102.406 601.551 94.8019 593.18 87.608 584.457ZM21.8123 460.692 698.188 460.692 697.13 464.809C693.692 475.87 689.725 486.698 685.26 497.263L678.572 511.154 41.4278 511.154 34.7406 497.263C30.2748 486.698 26.3082 475.87 22.8702 464.809ZM7 359.769 713 359.769C713 371.962 712.383 384.01 711.177 395.885L708.989 410.231 11.0105 410.231 8.8225 395.885C7.61743 384.01 7 371.962 7 359.769ZM21.8123 258.846 698.188 258.846 705.828 288.581 708.989 309.308 11.0105 309.308 14.1717 288.581ZM70.5386 157.923 649.461 157.923 652.713 162.275C659.057 171.671 664.961 181.388 670.395 191.399L678.572 208.385 41.4278 208.385 49.6052 191.399C55.0395 181.388 60.9432 171.671 67.2868 162.275ZM178.862 57 541.138 57 557.366 66.8647C566.756 73.2125 575.824 80.0006 584.541 87.1992L606.82 107.462 113.18 107.462 135.459 87.1992C144.176 80.0006 153.245 73.2125 162.634 66.8647Z" fill="#FFFFFF" fill-rule="evenodd"/><path d="M360 7C554.957 7 713 165.043 713 360 713 554.957 554.957 713 360 713 165.043 713 7 554.957 7 360 7 165.043 165.043 7 360 7Z" stroke="#000000" stroke-width="16" stroke-miterlimit="8" fill="none" fill-rule="evenodd"/><path d="M360.088 7 374.555 7.54827 393.057 18.7888C463.612 66.4573 510 147.183 510 238.744 510 385.241 391.246 504 244.757 504 144.045 504 56.4428 447.868 11.5267 365.181L7 355.783 8.59429 324.208C26.6877 146.037 177.152 7 360.088 7Z" stroke="#000066" stroke-width="16" stroke-miterlimit="8" fill="#000066" fill-rule="evenodd"/><path d="M339.034 165.499 348.176 228.022 383.549 175.663 364.581 235.965 419.178 204.106 375.945 250.229 439 245.19 380.046 267.995 439 290.801 375.945 285.761 419.178 331.885 364.581 300.025 383.549 360.327 348.176 307.969 339.034 370.492 329.892 307.969 294.519 360.327 313.487 300.025 258.89 331.885 302.123 285.761 239.068 290.801 298.022 267.995 239.068 245.19 302.123 250.229 258.89 204.106 313.487 235.965 294.519 175.663 329.892 228.022ZM287.769 168.062C232.56 143.573 167.945 168.463 143.448 223.655 118.951 278.846 143.849 343.44 199.058 367.929 227.301 380.457 259.527 380.457 287.769 367.929 232.56 407.529 155.691 394.889 116.079 339.697 76.4657 284.505 89.1102 207.661 144.32 168.062 187.19 137.313 244.899 137.313 287.769 168.062Z" fill="#FFCC00" fill-rule="evenodd"/></g></svg>