<svg width="720" height="720" xmlns="http://www.w3.org/2000/svg" xmlns:xlink="http://www.w3.org/1999/xlink" overflow="hidden"><defs><clipPath id="clip0"><rect x="0" y="0" width="720" height="720"/></clipPath></defs><g clip-path="url(#clip0)"><rect x="0" y="0" width="720" height="720" fill="#000000" fill-opacity="0"/><path d="M327.269 523.277C327.269 537.922 327.269 552.566 327.269 567.211 337.738 567.211 348.207 567.211 358.675 567.211 367.649 567.211 374.421 565.402 378.993 561.786 383.566 558.169 385.852 552.831 385.852 545.774 385.852 538.099 383.566 532.43 378.993 528.769 374.421 525.108 367.478 523.277 358.163 523.277 347.865 523.277 337.567 523.277 327.269 523.277ZM31.9193 523.277C31.9193 537.922 31.9193 552.566 31.9193 567.211 42.3881 567.211 52.857 567.211 63.3259 567.211 72.2991 567.211 79.0718 565.402 83.644 561.786 88.216 558.169 90.5022 552.831 90.5022 545.774 90.5022 538.099 88.216 532.43 83.644 528.769 79.0718 525.108 72.1282 523.277 62.8131 523.277 52.5152 523.277 42.2172 523.277 31.9193 523.277ZM509.769 459.891C501.778 483.182 493.788 506.471 485.797 529.762 502.12 529.762 518.443 529.762 534.766 529.762 526.903 506.471 519.041 483.182 511.179 459.891 510.709 459.891 510.239 459.891 509.769 459.891ZM327.269 456.715C327.269 470.434 327.269 484.151 327.269 497.87 336.199 497.87 345.13 497.87 354.061 497.87 363.29 497.87 370.084 496.04 374.443 492.379 378.801 488.717 380.98 483.535 380.98 476.829 380.98 470.037 378.801 464.986 374.443 461.678 370.084 458.37 363.461 456.715 354.573 456.715 345.472 456.715 336.37 456.715 327.269 456.715ZM31.9193 456.715C31.9193 470.434 31.9193 484.151 31.9193 497.87 40.8499 497.87 49.7804 497.87 58.711 497.87 67.9407 497.87 74.7347 496.04 79.0931 492.379 83.4517 488.717 85.6309 483.535 85.6309 476.829 85.6309 470.037 83.4517 464.986 79.0931 461.678 74.7347 458.37 68.1116 456.715 59.2236 456.715 50.1223 456.715 41.0208 456.715 31.9193 456.715ZM295.35 430.911C316.287 430.911 337.225 430.911 358.163 430.911 369.358 430.911 379.058 432.653 387.262 436.138 395.466 439.623 401.79 444.629 406.234 451.158 410.678 457.686 412.9 465.361 412.9 474.183 412.9 482.476 410.485 489.776 405.657 496.084 400.828 502.391 393.97 506.692 385.082 508.986 385.082 509.119 385.082 509.251 385.082 509.383 395.509 511.147 403.734 515.426 409.759 522.219 415.784 529.012 418.796 537.569 418.796 547.891 418.796 562.536 413.797 573.717 403.798 581.436 393.799 589.155 379.314 593.016 360.342 593.016 338.678 593.016 317.014 593.016 295.35 593.016 295.35 538.98 295.35 484.945 295.35 430.911ZM153.144 430.911C187.585 430.911 222.025 430.911 256.465 430.911 256.465 439.953 256.465 448.996 256.465 458.039 232.836 458.039 209.206 458.039 185.576 458.039 185.576 471.581 185.576 485.122 185.576 498.664 204.377 498.664 223.179 498.664 241.98 498.664 241.98 507.398 241.98 516.132 241.98 524.866 223.179 524.866 204.377 524.866 185.576 524.866 185.576 538.539 185.576 552.213 185.576 565.888 209.462 565.888 233.348 565.888 257.234 565.888 257.234 574.93 257.234 583.973 257.234 593.016 222.538 593.016 187.841 593.016 153.144 593.016 153.144 538.98 153.144 484.945 153.144 430.911ZM0 430.911C20.9376 430.911 41.8754 430.911 62.8131 430.911 74.0083 430.911 83.7079 432.653 91.9121 436.138 100.116 439.623 106.44 444.629 110.884 451.158 115.328 457.686 117.55 465.361 117.55 474.183 117.55 482.476 115.136 489.776 110.307 496.084 105.479 502.391 98.6208 506.692 89.733 508.986 89.733 509.119 89.733 509.251 89.733 509.383 100.159 511.147 108.385 515.426 114.41 522.219 120.434 529.012 123.447 537.569 123.447 547.891 123.447 562.536 118.448 573.717 108.449 581.436 98.4498 589.155 83.9644 593.016 64.9922 593.016 43.3282 593.016 21.664 593.016 0 593.016 0 538.98 0 484.945 0 430.911ZM659.11 428.397C670.903 428.397 682.056 430.712 692.567 435.344 703.079 439.975 711.668 446.129 718.333 453.804 711.625 460.641 704.916 467.479 698.208 474.315 693.593 468.757 687.888 464.479 681.094 461.479 674.3 458.48 667.228 456.98 659.879 456.98 652.7 456.98 647.167 458.679 643.278 462.075 639.39 465.471 637.446 469.684 637.446 474.712 637.446 479.212 638.856 482.829 641.676 485.563 644.496 488.299 649.538 490.813 656.802 493.106 662.998 495.091 669.194 497.076 675.39 499.061 685.901 502.413 694.405 506.273 700.9 510.64 707.395 515.007 712.202 520.234 715.321 526.321 718.44 532.408 720 539.686 720 548.155 720 556.889 717.906 564.785 713.719 571.843 709.531 578.9 703.186 584.524 694.682 588.714 686.179 592.906 675.732 595 663.34 595 650.692 595 638.877 592.949 627.896 588.847 616.914 584.745 607.15 578.856 598.604 571.181 604.501 562.668 610.398 554.155 616.294 545.641 623.217 552.699 630.63 557.926 638.535 561.322 646.44 564.719 654.495 566.417 662.699 566.417 679.535 566.417 687.953 560.506 687.953 548.685 687.953 543.744 686.35 539.708 683.145 536.577 679.941 533.445 674.193 530.467 665.904 527.644 658.597 525.219 651.29 522.792 643.983 520.366 631.164 516.132 621.593 510.375 615.269 503.097 608.945 495.819 605.783 486.446 605.783 474.977 605.783 466.773 607.898 459.12 612.128 452.017 616.358 444.916 622.512 439.203 630.588 434.881 638.664 430.558 648.171 428.397 659.11 428.397ZM492.078 428C504.085 428 516.093 428 528.1 428 548.824 483.005 569.548 538.011 590.272 593.016 578.906 593.016 567.539 593.016 556.173 593.016 551.986 580.664 547.798 568.313 543.611 555.963 521.348 555.963 499.086 555.963 476.824 555.963 472.593 568.313 468.363 580.664 464.133 593.016 452.639 593.016 441.144 593.016 429.65 593.016 450.459 538.011 471.269 483.005 492.078 428Z" fill="#FFFFFF" fill-rule="evenodd"/><path d="M361.796 241.668C364.633 241.992 368.281 246.119 370.945 259.38 374.812 278.628 372.158 288.846 376.579 289.125 383.183 289.54 379.911 247.104 388.343 245.689 396.195 244.372 392.83 267.336 390.912 284.924 390.096 292.414 389.54 305.861 400.23 307.171 406.333 307.919 417.236 274.511 430.197 288.005 428.504 292.371 425.158 294.402 421.776 299.704 413.604 312.517 414.078 315.115 411.251 320.643 408.424 326.171 401.417 334.686 397.011 342.641 396.73 344.71 396.646 346.756 396.685 348.787L397.062 354.288 394.351 354.989C387.939 356.307 381.3 357 374.5 357L364.975 356.517 362.409 350.855C360.089 346.743 356.922 342.403 354.043 338.161 348.285 329.677 349.585 319.326 343.022 308.291 336.83 297.754 320.67 283.049 324.448 276.679 327.461 271.597 336.356 283.711 340.298 289 343.848 293.764 350.307 300.212 351.814 299.455 354.182 298.158 349.858 294.207 347.542 287.382 345.225 280.558 337.327 260.578 337.914 258.508 339.533 252.793 345.178 250.429 351.814 269.585 358.449 288.741 364.805 298.003 363.082 282.529 361.101 270.581 359.728 254.277 357.51 246.778 356.932 244.825 358.959 241.345 361.796 241.668ZM374.5 159C428.9 159 473 203.324 473 258 473 299.007 448.194 334.191 412.841 349.22L405.236 352.018 404.71 344.325C404.649 341.208 404.778 338.069 405.209 334.894 411.971 322.687 422.723 309.621 427.061 301.138 431.4 292.655 430.672 288.668 443.213 269.005 448.402 260.869 453.537 257.754 456.134 251.053 436.245 230.348 419.515 281.612 410.15 280.464 393.746 278.454 394.598 257.82 395.851 246.326 398.793 219.336 403.958 184.098 391.908 186.12 378.969 188.29 383.99 253.41 373.857 252.772 367.073 252.345 371.144 236.665 365.211 207.127 357.035 166.43 342.82 181.794 344.594 187.791 347.999 199.297 350.104 224.316 353.145 242.65 355.789 266.395 346.035 252.183 335.853 222.788 325.672 193.393 317.009 197.02 314.524 205.79 313.624 208.966 325.743 239.626 329.298 250.098 332.853 260.57 339.487 266.634 335.853 268.623 333.541 269.785 323.629 259.891 318.182 252.581 312.133 244.464 298.483 225.875 293.859 233.674 288.063 243.449 312.861 266.013 322.362 282.183 332.433 299.117 330.438 315 339.274 328.019 344.796 336.155 351.011 344.528 354.509 352.158L355.673 355.146 354.649 354.989C309.764 345.757 276 305.842 276 258 276 203.324 320.1 159 374.5 159Z" fill="#FFFFFF" fill-rule="evenodd"/><path d="M94.5891 343.665C93.3884 343.878 92.2694 344.547 91.5166 345.623L89.2769 348.821 89.6087 348.872C92.6811 349.183 95.7986 349.343 98.9526 349.343L100.079 349.286 100.109 347.517C99.8962 346.319 99.2257 345.202 98.1483 344.45 97.0701 343.698 95.789 343.453 94.5891 343.665ZM84.1115 339.817C82.9115 340.029 81.7928 340.698 81.0391 341.774L77.5693 346.728 80.5345 347.49 87.8745 348.607 88.8453 347.221C90.3526 345.068 89.8264 342.105 87.6707 340.601 86.5926 339.849 85.3118 339.604 84.1115 339.817ZM73.6342 335.968C72.4342 336.18 71.3155 336.849 70.5617 337.925L66.7294 343.398 71.7764 345.242 76.2543 346.391 78.3685 343.371C79.8753 341.22 79.3492 338.256 77.1934 336.752 76.1157 336 74.8344 335.756 73.6342 335.968ZM51.4971 326.229C52.074 326.205 52.6995 326.238 53.3467 326.335 55.9354 326.721 57.8928 327.984 57.7184 329.155 57.5439 330.326 55.3042 330.962 52.7154 330.575 50.1264 330.189 48.1693 328.926 48.3438 327.755 48.4746 326.877 49.767 326.3 51.4971 326.229ZM146.425 326.094C148.159 326.165 149.454 326.74 149.585 327.617 149.759 328.786 147.798 330.047 145.205 330.433 142.612 330.819 140.368 330.184 140.194 329.015 140.019 327.846 141.979 326.586 144.573 326.2 145.221 326.103 145.847 326.07 146.425 326.094ZM45.3331 321.193C45.8837 321.194 46.4785 321.251 47.0919 321.369 49.5441 321.842 51.3592 323.125 51.1461 324.234 50.9324 325.343 48.7716 325.859 46.3197 325.386 43.8669 324.913 42.0518 323.63 42.2655 322.521 42.4252 321.688 43.6808 321.19 45.3331 321.193ZM152.601 321.067C154.256 321.064 155.514 321.562 155.674 322.392 155.888 323.5 154.069 324.78 151.612 325.253 149.155 325.725 146.991 325.21 146.778 324.103 146.564 322.995 148.382 321.715 150.839 321.243 151.453 321.124 152.049 321.068 152.601 321.067ZM62.353 317.852C63.4249 318.082 64.4749 319.119 64.971 320.576 65.6326 322.519 65.058 324.473 63.6881 324.941 62.3181 325.409 60.6716 324.213 60.0104 322.27 59.3488 320.328 59.9234 318.373 61.2929 317.905 61.6357 317.789 61.9952 317.775 62.353 317.852ZM135.551 317.732C135.909 317.655 136.27 317.668 136.613 317.785 137.985 318.252 138.561 320.203 137.897 322.142 137.235 324.082 135.586 325.275 134.213 324.808 132.841 324.341 132.265 322.39 132.928 320.451 133.425 318.996 134.477 317.961 135.551 317.732ZM39.4617 315.741C39.9895 315.765 40.5566 315.844 41.1389 315.982 43.4681 316.536 45.1536 317.839 44.9036 318.893 44.6538 319.947 42.5635 320.352 40.2339 319.798 37.9047 319.244 36.2194 317.94 36.4692 316.887 36.6563 316.096 37.8795 315.671 39.4617 315.741ZM158.482 315.625C160.068 315.555 161.292 315.98 161.48 316.768 161.73 317.82 160.042 319.121 157.709 319.674 155.375 320.227 153.281 319.823 153.031 318.771 152.78 317.72 154.469 316.419 156.802 315.865 157.386 315.727 157.954 315.649 158.482 315.625ZM55.4134 313.136C56.7468 312.861 58.1444 314.17 58.5342 316.062 58.9241 317.953 58.1591 319.71 56.8257 319.986 55.4919 320.262 54.0947 318.952 53.7048 317.06 53.3146 315.169 54.0797 313.412 55.4134 313.136ZM142.502 313.025C143.839 313.3 144.605 315.054 144.214 316.942 143.824 318.83 142.424 320.138 141.088 319.862 139.752 319.587 138.986 317.833 139.376 315.945 139.767 314.056 141.167 312.749 142.502 313.025ZM33.1111 310.08C33.918 310.006 34.9446 310.15 36.0001 310.529 38.1109 311.286 39.5372 312.696 39.1862 313.678 38.835 314.66 36.8393 314.842 34.7282 314.085 32.6178 313.328 31.1912 311.918 31.5424 310.936 31.7179 310.445 32.3044 310.154 33.1111 310.08ZM164.844 309.974C165.652 310.047 166.24 310.338 166.416 310.828 166.768 311.808 165.339 313.216 163.224 313.971 161.11 314.728 159.11 314.546 158.758 313.565 158.407 312.585 159.836 311.177 161.95 310.422 163.007 310.043 164.036 309.9 164.844 309.974ZM49.4017 308.36C50.7191 308.088 52.0997 309.382 52.4847 311.25 52.8701 313.118 52.1143 314.854 50.7963 315.127 49.4789 315.399 48.099 314.105 47.7132 312.237 47.3282 310.368 48.0839 308.633 49.4017 308.36ZM148.525 308.257C149.845 308.529 150.602 310.262 150.216 312.126 149.83 313.992 148.448 315.283 147.127 315.011 145.808 314.739 145.05 313.007 145.436 311.141 145.822 309.276 147.205 307.985 148.525 308.257ZM28.7121 304.219C29.4668 304.158 30.4118 304.315 31.3673 304.706 33.2783 305.486 34.509 306.902 34.1161 307.868 33.7225 308.834 31.8547 308.984 29.9435 308.204 28.0324 307.423 26.8017 306.007 27.195 305.041 27.3916 304.558 27.9566 304.28 28.7121 304.219ZM169.251 304.122C170.008 304.183 170.574 304.462 170.771 304.944 171.164 305.908 169.932 307.321 168.017 308.101 166.103 308.88 164.231 308.73 163.838 307.766 163.444 306.801 164.677 305.388 166.591 304.609 167.549 304.219 168.495 304.062 169.251 304.122ZM44.0786 303.236C45.2286 303.078 46.3635 304.43 46.6144 306.257 46.8649 308.084 46.1358 309.693 44.9867 309.851 43.8365 310.01 42.7018 308.657 42.4509 306.83 42.2004 305.003 42.9292 303.394 44.0786 303.236ZM153.857 303.141C155.009 303.3 155.739 304.906 155.488 306.73 155.237 308.554 154.1 309.904 152.948 309.746 151.796 309.588 151.066 307.981 151.317 306.158 151.568 304.334 152.705 302.984 153.857 303.141ZM24.3704 298.028C25.1269 297.986 26.0674 298.166 27.0133 298.579 28.9056 299.405 30.1015 300.85 29.6853 301.806 29.2696 302.762 27.3985 302.868 25.5065 302.042 23.6146 301.216 22.4183 299.771 22.8342 298.815 23.0424 298.337 23.6142 298.071 24.3704 298.028ZM173.6 297.943C174.358 297.986 174.931 298.251 175.139 298.729 175.556 299.683 174.358 301.125 172.462 301.95 170.567 302.774 168.692 302.669 168.276 301.714 167.859 300.759 169.058 299.318 170.953 298.493 171.9 298.081 172.843 297.901 173.6 297.943ZM39.1723 297.72C40.207 297.604 41.2107 298.979 41.4134 300.789 41.6162 302.6 40.9417 304.162 39.9063 304.278 38.8715 304.395 37.8682 303.021 37.6658 301.21 37.4629 299.399 38.1372 297.837 39.1723 297.72ZM158.773 297.636C159.809 297.752 160.485 299.312 160.282 301.119 160.079 302.927 159.074 304.298 158.037 304.183 157 304.066 156.324 302.507 156.528 300.699 156.73 298.891 157.735 297.52 158.773 297.636ZM34.6927 292.071C35.7277 291.955 36.731 293.329 36.9342 295.14 37.1367 296.951 36.4617 298.513 35.427 298.629 34.3919 298.745 33.3887 297.371 33.1862 295.561 32.983 293.75 33.6577 292.188 34.6927 292.071ZM163.26 291.997C164.297 292.113 164.972 293.672 164.769 295.48 164.566 297.288 163.561 298.659 162.524 298.543 161.487 298.427 160.812 296.867 161.015 295.06 161.218 293.252 162.223 291.881 163.26 291.997ZM25.5922 287.787C26.546 287.914 27.7057 288.843 28.5226 290.239 29.6115 292.1 29.6778 294.089 28.6711 294.68 27.6636 295.271 25.9643 294.241 24.8753 292.379 23.7866 290.518 23.72 288.53 24.7275 287.939 24.979 287.791 25.2741 287.744 25.5922 287.787ZM172.376 287.72C172.695 287.678 172.991 287.724 173.243 287.872 174.251 288.462 174.185 290.446 173.094 292.305 172.003 294.163 170.301 295.191 169.292 294.601 168.283 294.01 168.35 292.026 169.441 290.167 170.259 288.774 171.421 287.847 172.376 287.72ZM36.0996 278.967 38.5899 281.618C46.4935 288.89 56.2491 294.729 67.2334 298.614L74.5224 300.845 77.6372 298.98C84.2033 295.525 91.422 293.616 99 293.616 106.578 293.616 113.797 295.525 120.363 298.98L123.478 300.845 130.767 298.614C141.751 294.729 151.507 288.89 159.41 281.618L161.901 278.967 161.803 279.008C152.839 282.42 142.955 285.122 132.403 286.971L127.232 287.759 125.506 288.361C106.722 293.961 89.7558 293.406 73.9496 289.203L67.7256 287.296 65.5974 286.971C55.0454 285.122 45.1607 282.42 36.1968 279.008ZM142.939 268.757C121.837 281.279 95.4415 295.158 61.989 280.34L65.4097 285.671 72.2823 287.778C90.5454 292.633 110.261 292.923 132.319 285.247L135.53 284.049ZM189.921 249.796 188.996 251.873C175.991 277.765 153.715 297.42 126.987 305.63L125.164 306.117 123.355 306.389C109.105 307.714 103.697 296.842 92.1335 301.12L90.9616 301.823 69.2253 318.002C76.7284 330.412 89.1581 317.769 93.2423 314.266 94.6915 313.023 95.5989 312.804 98.3889 314.058L131.02 329.52 131.685 329.153C146.268 320.562 162.027 304.516 167.15 296.209 167.445 295.73 168.122 295.423 168.58 295.493 169.04 295.563 169.282 296.01 168.709 297.039 164.962 303.763 150.557 319.953 135.527 329.119L133.098 330.505 145.63 336.444 150.05 333.764C174.359 317.371 190.343 289.609 190.343 258.122ZM8.07784 249.796 7.65747 258.136C7.65747 294.362 28.7005 325.664 59.2106 340.447L64.3923 342.706 68.5798 336.705C69.1458 335.894 69.8486 335.237 70.6358 334.742L72.281 334.107 69.3089 332.937C52.0498 325.292 33.5686 304.894 29.2529 297.122 28.6806 296.092 28.9227 295.644 29.3811 295.574 29.8396 295.504 30.5152 295.811 30.8095 296.29 36.7095 305.894 56.7464 325.816 72.8043 332.68L75.7613 333.798 75.9354 333.801C76.8438 333.995 77.7294 334.371 78.5384 334.937 79.3482 335.504 80.0043 336.208 80.4986 336.996L81.1114 338.591 83.6526 337.611C85.4552 337.291 87.3791 337.66 88.998 338.793 89.807 339.36 90.4634 340.064 90.9572 340.852L91.5702 342.447 94.1122 341.467C95.9136 341.147 97.838 341.516 99.4565 342.649 101.075 343.783 102.082 345.466 102.401 347.271L102.366 349.343 108.214 349.047C109.939 348.872 111.65 348.648 113.346 348.378L115.947 347.887 109.846 344.981C108.899 344.53 108.497 343.396 108.947 342.447 109.397 341.498 110.529 341.095 111.476 341.545L121.822 346.473 128.147 344.718 129.245 344.299 116.488 338.224C115.541 337.773 115.139 336.638 115.589 335.689 116.039 334.741 117.172 334.337 118.119 334.788L134.16 342.428 134.397 342.337 142.21 338.567 98.998 318.192C96.5861 317.071 95.5023 316.475 93.1996 318.621 76.2331 334.435 67.2528 322.932 65.6612 317.374L90.6076 298.499 89.1356 298.531C80.0569 299.6 76.555 306.051 69.8493 305.318L69.571 305.265 64.3269 303.437C40.5787 294.179 20.902 275.652 9.00154 251.876ZM122.321 226.641 121.013 231.126C112.345 254.576 86.4267 270.649 68.8941 273.664L64.9088 274.096 69.9166 276.966C97.0672 290.338 130.125 277.06 146.95 251.353ZM99.2428 203.486C99.139 243.93 71.9071 264.603 58.7074 269.563L59.4222 270.1 63.9229 269.949C91.6562 267.265 111.84 244.516 118.072 226.417L118.97 223.28ZM147.855 195.464 145.271 198.732 146.936 200.001C159.915 210.779 169.233 225.86 172.733 243.074L173.089 245.42 177.215 245.42 176.729 242.21C173.03 224.019 163.183 208.082 149.468 196.693ZM50.1449 195.464 48.5322 196.693C34.8173 208.082 24.9702 224.019 21.2714 242.21L20.7845 245.42 25.2662 245.42 25.6218 243.074C29.1224 225.86 38.4403 210.779 51.4189 200.001L52.8626 198.9ZM99 190.724C66.4134 190.724 39.2248 213.868 32.937 244.636L32.8178 245.42 37.5067 245.42 39.0289 239.491C47.0028 213.821 70.9165 195.182 99.1776 195.182 127.439 195.182 151.352 213.821 159.326 239.491L160.848 245.42 165.182 245.42 165.063 244.636C158.775 213.868 131.587 190.724 99 190.724ZM131.098 182.25 126.171 192.038 127.74 192.829 130.892 186.57C131.054 186.246 131.19 185.97 131.301 185.74 131.411 185.51 131.492 185.331 131.545 185.204L131.579 185.221C131.585 185.333 131.593 185.445 131.602 185.558 131.611 185.671 131.624 185.823 131.642 186.014L132.696 195.323 134.477 196.22 139.405 186.432 137.835 185.642 134.726 191.819C134.558 192.151 134.42 192.431 134.312 192.659 134.202 192.886 134.12 193.066 134.066 193.198L134.038 193.184C134.034 193.033 134.027 192.892 134.017 192.758 134.008 192.625 133.996 192.47 133.983 192.292L132.989 183.202ZM121.773 181.034 121.817 181.047C121.808 181.183 121.803 181.297 121.804 181.391 121.805 181.484 121.809 181.59 121.815 181.71L121.976 186.306 118.695 185.303 121.4 181.575C121.472 181.48 121.533 181.392 121.585 181.312 121.636 181.232 121.699 181.139 121.773 181.034ZM71.671 180.298 70.0309 181.03 71.421 188.929C71.4548 189.104 71.4815 189.238 71.5009 189.332 71.5211 189.427 71.5497 189.566 71.5869 189.75L71.5593 189.762C71.4538 189.614 71.3709 189.499 71.3091 189.418 71.2476 189.337 71.1663 189.232 71.0649 189.105L65.9832 182.836 64.3152 183.581 65.4663 191.561C65.4964 191.754 65.5199 191.899 65.536 191.998 65.552 192.097 65.579 192.238 65.6165 192.422L65.5817 192.438C65.4742 192.285 65.3885 192.166 65.3254 192.08 65.2615 191.994 65.1758 191.885 65.0676 191.755L60.0586 185.48 58.2786 186.274 65.5149 195.046 67.4337 194.189 66.3092 186.549C66.288 186.402 66.2662 186.268 66.2433 186.147 66.2197 186.027 66.188 185.883 66.1473 185.717L66.175 185.704C66.2652 185.843 66.3464 185.96 66.4198 186.056 66.4929 186.151 66.5806 186.263 66.6824 186.39L71.5859 192.336 73.4427 191.508ZM80.0139 180.015C80.0736 180.137 80.1275 180.238 80.175 180.318 80.2228 180.399 80.2794 180.488 80.3443 180.589L82.7914 184.483 79.45 185.262 79.9183 180.68C79.9326 180.562 79.9415 180.455 79.9455 180.36 79.9497 180.265 79.9572 180.153 79.9695 180.025ZM121.389 178.998 114.283 188.286 116.147 188.855 117.776 186.636 122 187.927 122.147 190.689 124.018 191.261 123.348 179.597ZM80.6092 177.992 78.6149 178.458 77.1323 190.057 79.0297 189.614 79.3243 186.877 83.626 185.873 85.1397 188.188 87.0446 187.743ZM91.9544 177.704C92.5999 177.655 93.0975 177.772 93.4485 178.055 93.7992 178.338 93.9947 178.746 94.035 179.279 94.0784 179.864 93.9284 180.35 93.5847 180.738 93.2413 181.127 92.7667 181.344 92.1625 181.39L90.7301 181.497 90.4532 177.816ZM110.77 176.585C109.752 176.436 108.855 176.588 108.08 177.043 107.305 177.498 106.845 178.222 106.699 179.215 106.577 180.047 106.734 180.746 107.171 181.312 107.607 181.879 108.376 182.379 109.476 182.814 110.151 183.083 110.638 183.384 110.934 183.716 111.23 184.048 111.344 184.451 111.274 184.924 111.202 185.414 110.976 185.769 110.596 185.991 110.215 186.213 109.713 186.278 109.087 186.186 108.563 186.109 108.124 185.92 107.769 185.621 107.414 185.322 107.159 184.911 107.004 184.389L105.323 184.945C105.536 185.702 105.953 186.325 106.574 186.813 107.195 187.301 107.961 187.612 108.874 187.746 110.058 187.92 111.016 187.745 111.747 187.218 112.479 186.693 112.915 185.948 113.057 184.986 113.189 184.083 113.029 183.326 112.576 182.714 112.123 182.101 111.341 181.582 110.229 181.156 109.509 180.875 109.022 180.592 108.771 180.307 108.519 180.023 108.424 179.669 108.486 179.247 108.548 178.823 108.755 178.507 109.105 178.298 109.455 178.09 109.912 178.027 110.476 178.11 110.93 178.177 111.302 178.327 111.592 178.56 111.882 178.793 112.111 179.141 112.281 179.604L113.909 179.086C113.653 178.374 113.258 177.808 112.723 177.386 112.187 176.965 111.536 176.698 110.77 176.585ZM92.0417 176.211 88.5282 176.475 89.3499 187.402 91.1634 187.266 90.8414 182.983 91.8325 182.909C92.1472 182.885 92.4206 182.938 92.6528 183.07 92.8849 183.2 93.1785 183.523 93.5339 184.038L95.5223 186.939 97.6027 186.782 95.3111 183.513C95.0533 183.144 94.8223 182.859 94.6184 182.657 94.4139 182.455 94.188 182.3 93.9394 182.191L93.9377 182.168C94.6065 181.888 95.1185 181.46 95.4736 180.884 95.8283 180.308 95.9802 179.669 95.9272 178.968 95.8549 178.008 95.4749 177.287 94.7874 176.805 94.0999 176.323 93.1846 176.125 92.0417 176.211ZM100.459 175.921 100.051 186.871 101.868 186.939 102.277 175.988ZM99 166.657C54.9041 166.657 18.1139 198.059 9.60513 239.803L8.75136 245.42 13.2312 245.42 13.9539 240.665C22.0658 200.868 57.1394 170.932 99.1772 170.932 141.216 170.932 176.289 200.868 184.401 240.665L185.124 245.42 189.249 245.42 188.395 239.803C179.886 198.059 143.096 166.657 99 166.657ZM99 159C153.676 159 198 203.324 198 258 198 312.676 153.676 357 99 357 44.324 357 0 312.676 0 258 0 203.324 44.324 159 99 159Z" fill="#FFFFFF" fill-rule="evenodd"/><path d="M648.803 313.65C648.28 313.65 648.213 313.663 647.875 313.827 647.412 314.052 646.765 314.51 646.525 314.783L646.367 315.058 646.31 315.111 646.293 315.185 646.147 315.438C646.064 315.698 646.017 316.023 645.983 316.485L646.05 317.246 646.058 317.462 646.07 317.477 646.074 317.518 646.2 317.636 646.435 317.924 646.481 317.899 646.536 317.95C646.72 317.986 646.828 317.986 646.934 317.857L647.057 317.587 647.124 317.551 647.541 316.664 647.803 316.259 648.347 316.008 648.675 315.892C649.283 315.851 649.647 316.035 649.891 316.506 649.985 316.686 650.009 316.825 650.009 317.181L649.973 317.591 649.833 317.955 649.7 318.254C649.533 318.594 649.439 318.822 649.409 318.987L649.43 319.07 649.415 319.11 649.451 319.156 649.5 319.348 649.641 319.394 649.697 319.464 649.803 319.446 649.838 319.458C649.984 319.463 650.148 319.435 650.291 319.374L650.304 319.363 650.332 319.358C650.581 319.24 650.856 319.037 651.126 318.74L651.217 318.586 651.297 318.518 651.353 318.355 651.648 317.855 651.722 317.286 651.778 317.125 651.756 317.03 651.78 316.845C651.759 316.498 651.675 316.146 651.527 315.805L651.438 315.667 651.417 315.577 651.142 315.21 650.896 314.831 650.778 314.724 650.698 314.617 650.329 314.32 649.993 314.017 649.91 313.983 649.769 313.869C649.571 313.761 649.468 313.707 649.345 313.679L649.162 313.669 649.119 313.651 649.075 313.665ZM622.505 312.976C621.892 312.943 621.56 313.011 621.043 313.273 620.657 313.47 620.327 313.716 620.07 313.994L619.854 314.361 619.756 314.449 619.731 314.569 619.531 314.908C619.409 315.319 619.353 315.792 619.362 316.232L619.515 317.015 619.57 317.319 619.576 317.327 619.581 317.354 619.959 317.785 620.234 318.114 620.26 318.129 620.261 318.13C620.565 318.394 620.904 318.627 621.15 318.716L621.15 318.717C621.416 318.814 621.415 318.814 621.515 318.711 621.576 318.649 621.603 318.589 621.585 318.437L621.492 318.064 621.494 318.055 621.457 317.922 621.381 317.614 621.113 316.463 621.104 316.376 621.118 315.924 621.741 315.324 621.826 315.292 622.859 315.313 623.183 315.432 623.737 316.43 624.154 317.306 624.348 317.331 624.422 317.439 624.606 317.364 624.678 317.374 624.729 317.314 624.843 317.268 625.003 316.997 625.111 316.872 625.141 316.765 625.213 316.642 625.234 316.424 625.342 316.028 625.307 315.641 625.331 315.388 625.273 315.254 625.256 315.072 625.095 314.844 624.848 314.274 624.4 313.864 624.224 313.615 624.063 313.555 623.931 313.434C623.572 313.214 623.168 313.063 622.748 313.002L622.629 313.022ZM613.142 280.595 613.018 280.668 612.979 280.631 612.757 280.822 612.546 280.946 612.531 281.016 612.521 281.025 612.442 281.429 612.291 282.139C612.255 282.625 612.284 282.998 612.424 283.389L612.45 283.433 612.452 283.453 612.622 283.724 613.227 284.752C613.629 285.301 614.005 285.976 614.315 286.682L614.993 288.778 615.003 288.82 615.086 289.464 615.048 289.949 615.019 290.146C614.947 290.363 614.937 290.544 614.963 291.133 615.004 292.044 615.172 293.317 615.38 294.462L615.596 295.488 615.604 295.534 615.609 295.552 615.708 296.021C615.82 296.468 615.93 296.821 616.028 297.018 616.128 297.222 616.336 297.551 616.574 297.893L616.669 298.018 616.681 298.038 616.729 298.097 617.297 298.847 617.407 298.944 617.535 299.104 617.948 299.417 618.677 300.053 618.677 300.053 618.862 300.109 618.936 300.165 619.005 300.153 619.104 300.182 619.151 300.127 619.271 300.105 619.256 300 619.284 299.967 619.221 299.76 619.199 299.603 618.7 298.101 617.748 295.13 617.747 295.122 617.24 291.102 617.2 290.615C617.101 288.705 616.982 287.539 616.656 286.547L616.64 286.513 616.637 286.498 616.547 286.313 615.99 285.117 615.911 285.004 615.91 285.001 615.891 284.974 614.875 283.519C614.019 282.394 613.556 281.539 613.553 281.085 613.55 280.8 613.379 280.595 613.142 280.595ZM628.541 275.366 628.474 275.458 628.444 275.446 628.342 275.64 628.124 275.94 627.992 276.307 627.983 276.325 627.98 276.342 627.678 277.182C627.569 277.604 627.538 277.88 627.516 278.613L627.523 278.837 627.509 278.917 627.539 279.309 627.566 280.145C627.618 280.679 627.709 281.277 627.852 282.054L628.09 283.445 628.249 284.773 628.31 285.883C628.323 286.324 628.327 286.82 628.327 287.421 628.327 289.83 628.174 291.694 627.846 293.284L627.829 293.397 627.751 293.868C627.681 294.145 627.621 294.51 627.569 294.942L627.521 295.497 627.441 296.045C627.366 297.012 627.342 298.142 627.342 299.78 627.342 301.092 627.365 302.176 627.414 303.09L627.513 304.093 627.599 304.991 627.607 305.031 627.642 305.386 627.716 305.619 627.787 306.003 628.05 306.676 628.375 307.699C628.545 308.104 628.728 308.49 628.906 308.818L629.236 309.318 629.331 309.479 629.354 309.498 629.411 309.584 629.491 309.615 629.737 309.826 629.754 309.718 629.787 309.731 629.802 309.41 629.821 309.282C629.865 308.581 629.882 307.255 629.87 305.606L629.849 304.218 629.849 304.198C629.845 303.307 629.837 302.425 629.825 301.652 629.802 300.168 629.797 298.261 629.816 297.413 629.827 296.888 629.84 296.449 629.861 296.034L629.896 295.571 629.977 294.602 630.13 293.338C630.207 292.771 630.304 292.104 630.427 291.275 630.882 288.226 630.901 288.032 630.905 286.623L630.902 286.502 630.922 285.976 630.885 285.698 630.88 285.465C630.859 285.117 630.821 284.787 630.758 284.415L630.634 283.842 630.63 283.819 630.619 283.774 630.477 283.116C630.35 282.602 630.186 281.987 629.975 281.21 629.767 280.444 629.513 279.428 629.41 278.953 629.233 278.137 629.193 277.872 629.058 276.644L629.036 276.544 629.004 276.242 628.898 275.92 628.853 275.717 628.818 275.677 628.788 275.587 628.709 275.555ZM656.346 272.257 656.305 272.315 656.156 272.319 656.078 272.631 656.027 272.703C655.889 273.776 655.837 277.667 655.942 279.163L656 279.614 656.006 279.695 656.019 279.76 656.056 280.045 656.089 280.096 656.1 280.153 656.14 280.178 656.302 280.433 656.581 280.447 656.691 280.514 656.729 280.454 656.761 280.456C656.914 280.324 657.08 280.042 657.301 279.575 657.497 279.16 657.697 278.771 657.954 278.315L658.773 276.943 659.119 276.369 659.477 275.754 659.91 275.022 659.943 274.953 660.098 274.687 660.191 274.439 660.373 274.065 660.38 273.942 660.439 273.784 660.391 273.743 660.394 273.69 660.125 273.512 660.081 273.474 660.051 273.462 659.98 273.415C659.774 273.322 659.494 273.225 659.124 273.117 658.707 272.995 658.067 272.785 657.702 272.651 656.973 272.383 656.573 272.25 656.346 272.257ZM616.825 271.349 616.694 271.42 616.457 271.479 615.998 271.798 615.805 271.902C615.237 272.351 614.69 272.636 614.012 272.837 613.378 273.024 613.198 273.117 613.147 273.282 613.116 273.38 613.125 273.486 613.208 273.682L613.256 273.77 613.263 273.805 613.437 274.107 613.72 274.632C614.015 275.143 614.693 276.461 615.225 277.562 615.622 278.383 615.875 278.896 616.055 279.231L616.153 279.381 616.252 279.576 616.318 279.637 616.445 279.833C616.584 279.981 616.746 280.102 616.805 280.102L616.856 280.032 617.2 279.686 617.236 279.506 617.268 279.461 617.316 279.109 617.463 278.381 617.485 277.861 617.528 277.538 617.542 276.498 617.547 276.38 617.545 276.317 617.55 275.922C617.524 274.743 617.424 273.446 617.288 272.537L617.243 272.333 617.229 272.212 617.195 272.117 617.064 271.528 616.957 271.447 616.926 271.362 616.864 271.378ZM664.72 260.787C664.668 260.784 664.596 260.807 664.453 260.853L664.369 260.903 664.36 260.904C664.141 260.997 663.866 261.157 663.557 261.364L663.441 261.456 663.121 261.647C662.027 262.451 660.643 263.694 659.697 264.723L659.509 264.967 659.468 265.008C659.203 265.312 658.984 265.592 658.832 265.83L658.815 265.869 658.698 266.022 658.686 266.178 658.593 266.4 658.663 266.484 658.65 266.656 658.908 266.78 658.949 266.83 659.042 266.845 659.062 266.855 659.208 266.87 659.494 266.914 659.906 266.925 660.339 266.948C661.121 266.979 661.561 267.008 661.848 267.084L662.317 267.417 662.469 267.538 662.814 267.947 662.912 267.994 663.015 268.106 663.158 268.113 663.249 268.157 663.328 268.122 663.473 268.129 663.605 267.997 663.685 267.961 663.752 267.85 663.913 267.689 664.103 267.268 664.172 267.153 664.209 267.033 664.316 266.795 664.439 266.281 664.572 265.845 664.609 265.565 664.706 265.159C664.815 264.539 664.9 263.875 664.954 263.257L664.967 262.894 664.984 262.765 664.99 262.252 665.012 261.634 664.998 261.57 664.998 261.517C664.978 261.185 664.933 260.956 664.86 260.88L664.839 260.867 664.833 260.84 664.805 260.844ZM608.852 260.694 608.7 260.736 608.443 260.759 608.431 260.812 608.375 260.827 608.31 261.355 608.251 261.62 608.257 261.78 608.251 261.827 608.263 261.937 608.312 263.182C608.369 263.764 608.461 264.379 608.578 264.946L608.608 265.05 608.623 265.188 608.891 266.037 608.999 266.415 609.03 266.479 609.079 266.634 609.257 266.949 609.471 267.39 609.573 267.506 609.646 267.634 609.723 267.677 609.873 267.847 610.009 267.832 610.099 267.881 610.163 267.815 610.245 267.806 610.468 267.498 610.571 267.391 610.741 267.19 611.204 266.818 611.547 266.684 612.842 266.424 613.687 266.279 614.272 266.18C614.624 266.094 614.843 266.006 614.843 265.938L614.838 265.931 614.84 265.93 614.819 265.899 614.656 265.633 614.599 265.57 614.582 265.543 614.382 265.325 614.155 265.071 614.084 265.001 613.892 264.791 613.168 264.098 612.57 263.508 612.296 263.262 611.726 262.716 611.206 262.283 610.802 261.92 610.425 261.634 609.912 261.207 609.779 261.143 609.566 260.981 609.026 260.779ZM595.767 246.657 595.737 246.667 595.687 246.663C595.161 246.663 594.664 246.795 594.137 247.094L593.99 247.215 593.95 247.228 593.465 247.648 592.402 248.524 592.305 248.653 592.078 248.85 590.729 250.746 590.246 251.387 589.119 253.751 588.655 254.7 588.616 254.805 588.403 255.251 587.956 256.568 587.913 256.684 587.904 256.722 587.717 257.276 587.704 257.585 587.64 257.861 587.688 257.968 587.68 258.157 587.812 258.244 587.833 258.29 587.864 258.278 587.932 258.323C588.026 258.322 588.143 258.266 588.327 258.155L588.429 258.057 588.488 258.034 588.606 257.889 588.627 257.869 588.651 257.833 588.75 257.711 588.915 257.444 589.046 257.252C589.381 256.703 589.846 255.852 590.539 254.536 592.419 250.965 593.173 250.017 595.026 248.884 595.416 248.646 595.741 248.426 596 248.224L596.068 248.16 596.233 248.049 596.339 247.903 596.585 247.67 596.701 247.404 596.732 247.362 596.727 247.344 596.783 247.218C596.785 247.084 596.723 246.966 596.599 246.862L596.591 246.859 596.59 246.855 596.573 246.851 596.261 246.708 595.842 246.675ZM578.743 231.068 578.972 231.493 576.641 234.819C571.867 241.629 568.023 250.943 566.149 260.437 565.516 263.641 565.425 265.123 565.432 272.087 565.44 280.667 565.734 283.247 567.423 289.542 571.606 305.134 581.926 319.47 595.867 329.056 602.345 333.51 611.975 337.552 620.099 339.227 625.961 340.436 628.964 340.742 634.951 340.742 647.47 340.742 658.104 337.647 669.781 330.604 683.991 322.033 696.201 305.727 700.1 290.112 701.651 283.904 702.904 273.207 702.523 269.428 702.431 268.513 702.273 266.867 702.173 265.77 701.262 255.854 698.269 246.578 693.235 238.079 692.714 237.199 692.038 236.324 691.733 235.807L691.703 235.736 691.698 235.788C692.146 236.608 687.443 241.302 683.466 244.006 681.728 245.187 680.306 246.293 680.306 246.465 680.306 246.636 680.781 247.236 681.362 247.797 683.634 249.995 685.439 253.197 686.258 256.489 686.924 259.161 687.305 264.781 686.84 265.076 685.85 265.704 677.529 261.77 674.48 259.232 673.118 258.099 672.652 258.05 672.66 259.042 672.673 260.476 672.141 264.457 671.706 266.189 670.736 270.05 668.589 274.754 665.91 278.886 661.604 285.528 661.088 286.914 660.711 292.87 660.369 298.259 659.663 301.205 657.685 305.504 656.404 308.289 656.303 312.168 657.425 315.453 658.433 318.401 658.478 319.61 657.635 321.029 656.456 323.013 653.98 324.09 649.813 324.433 647.518 324.623 646.523 324.903 644.142 326.033 640.962 327.541 639.1 327.859 636.07 327.41 633.896 327.087 632.983 326.772 630.398 325.452 628.597 324.531 625.36 323.79 623.143 323.79 621.037 323.79 619.104 323.093 617.726 321.838 616.066 320.326 615.765 318.586 616.646 315.61 617.825 311.631 617.317 305.871 615.556 303.238 614.45 301.586 613.872 299.351 613.687 296.018 613.465 292.02 613.062 289.404 612.243 286.646 611.563 284.356 611.29 283.864 608.659 280.195 606.674 277.425 604.221 272.57 603.223 269.432 602.457 267.026 601.232 261.169 601.232 259.915 601.232 259.419 601.161 258.875 601.051 258.579 600.867 258.087 600.763 257.982 600.044 258.465 597.337 260.285 591.182 263.461 588.822 264.257 586.643 264.991 586.523 264.775 586.746 260.507 587.04 254.873 588.585 251.089 591.987 247.663 592.794 246.851 593.454 246.086 593.454 245.964 593.454 245.841 592.032 244.648 590.294 243.311 588.556 241.975 586.133 239.862 584.909 238.616 583.684 237.37 582.554 236.351 582.333 236.039 582.111 235.728 581.614 235.018 581.006 234.37 580.654 233.994 580.276 233.505 579.883 232.927ZM695.24 228.799 694.645 229.856 694.776 229.666C694.906 229.52 695.043 229.25 695.171 228.96ZM621.902 228.108 620.189 228.249 620.047 228.255 619.894 228.273 618.482 228.389C616.823 228.594 615.352 228.881 614.563 229.191L614.298 229.345 614.246 229.366 614.223 229.388 614.019 229.506 613.941 229.66 613.936 229.664 613.938 229.666 613.885 229.771 614.064 229.839 614.093 229.879 614.207 229.893 614.25 229.91 614.371 229.914 614.901 229.981C615.507 230.006 616.446 229.992 617.853 229.946L618.692 229.915 620.565 229.892C621.59 229.883 622.536 229.877 623.156 229.878 625.452 229.881 625.712 229.914 628.2 230.525 628.318 230.554 628.704 230.56 629.056 230.538 629.306 230.522 629.477 230.498 629.604 230.456L629.647 230.425 629.657 230.424 629.679 230.403 629.887 230.258 629.891 230.207 629.995 230.111 629.916 229.921 629.928 229.777 629.828 229.711 629.817 229.686C629.661 229.535 629.413 229.379 629.089 229.224L629.085 229.223 629.085 229.222 629.078 229.22 627.902 228.77 627.583 228.687 627.215 228.556 626.79 228.481 626.347 228.366 625.539 228.262 624.944 228.157 623.414 228.133 623.07 228.122 622.99 228.126ZM576.257 226.033 576.724 227.094C576.903 227.509 577.135 227.92 577.324 228.342 577.514 228.764 577.709 229.177 577.946 229.595L578.587 230.78ZM697.151 224.472 696.133 226.983 696.146 226.957C696.379 226.4 696.653 225.768 696.935 225.068ZM574.364 221.071 574.858 222.509C575.112 223.178 575.39 223.941 575.697 224.715 575.85 225.102 576.001 225.448 576.177 225.849L576.215 225.936ZM680.553 207.965 680.563 208.294 680.569 208.208ZM633.666 204.673C632.131 204.673 630.664 204.713 629.366 204.796 620.668 205.355 613.65 207.072 605.607 210.612 602.979 211.768 595.825 215.664 594.845 216.473 594.676 216.612 594.523 216.743 594.379 216.815L594.169 216.813 594.282 216.954C594.539 217.056 594.75 217.31 594.751 217.519 594.753 217.964 596.823 221.16 597.991 222.518 599.482 224.252 603.63 226.785 606.579 227.763 608.286 228.329 611.426 228.361 613.259 227.83 616.801 226.806 619.312 226.383 623.126 226.168 627.305 225.934 629.239 226.223 634.701 227.9 637.101 228.637 637.332 228.654 638.605 228.175 641.788 226.979 644.494 226.562 649.033 226.568 653.509 226.574 654.284 226.691 659.727 228.193 662.682 229.009 666.46 228.954 668.718 228.062 670.495 227.361 673.458 225.302 675.059 223.656 675.632 223.066 676.167 222.404 676.661 221.682L677.814 219.702 677.654 219.926C677.544 219.916 675.867 218.679 674.205 217.439 670.973 215.029 663.994 211.029 660.537 209.605 657.76 208.462 650.077 206.261 646.546 205.599 643.482 205.024 638.27 204.672 633.666 204.673ZM592.518 203.567 592.517 203.577 592.517 203.595ZM685.551 167.651 685.505 167.696 685.44 167.702C685.273 167.813 685.04 168.027 684.742 168.347 683.585 169.589 682.333 171.294 681.187 173.14L680.336 174.635 680.247 174.778 680.193 174.886 679.574 175.974C679.08 176.926 678.638 177.874 678.272 178.775L677.77 180.339 677.422 181.279 677.326 181.723 677.083 182.48 677.013 183.164 676.887 183.739 676.792 185.313 676.727 185.948 676.741 186.147 676.737 186.213 676.775 186.608 676.916 188.521C677.054 189.321 677.28 190.133 677.628 191.163 679.653 197.151 680.532 200.257 680.892 202.695 681.161 204.51 681.23 209.729 681.013 211.659L680.193 215.558 680.168 215.645 678.521 219.695C677.235 222.293 675.903 224.242 673.856 226.52 673.151 227.304 672.722 227.799 672.47 228.137L672.426 228.229 672.419 228.237 672.412 228.259 672.142 228.822 672.198 228.881 672.177 228.944 672.25 228.934 672.352 229.042 672.873 228.854 672.899 228.85 672.928 228.834 673.108 228.769C673.519 228.573 673.98 228.297 674.464 227.963L674.52 227.92 674.547 227.904 674.657 227.814 675.955 226.814 676.553 226.261 677.047 225.856 677.259 225.608 677.418 225.461C677.883 224.991 678.315 224.511 678.688 224.043L679.072 223.484 679.265 223.259 679.559 222.777 680.184 221.868 680.652 220.987 681.107 220.241 681.322 219.723 681.498 219.392C681.893 218.542 682.24 217.681 682.521 216.847L682.627 216.441 682.96 215.317 683.036 214.881 683.145 214.465 683.187 214.016 683.223 213.81 683.249 213.355 683.292 212.899 683.328 211.978 683.337 211.819 683.338 211.723 683.341 211.648C683.355 211.17 683.367 210.625 683.377 210.005 683.412 207.938 683.397 206.309 683.324 204.968L683.287 204.662 683.229 203.614C683.168 203.013 683.082 202.474 682.959 201.896L682.942 201.826 682.921 201.659C682.829 201.231 682.685 200.683 682.507 200.064L682.491 200.015 682.474 199.946 682.304 199.411 681.884 198.052 681.745 197.649 681.464 196.762C681.266 196.203 681.063 195.652 680.865 195.143L680.713 194.779 680.422 194.018 680.158 193.327 678.919 189.33 678.505 185.924C678.438 183.813 678.507 183.251 679.033 181.599 679.694 179.524 680.875 177.102 683.36 172.725 683.702 172.123 684.073 171.451 684.395 170.854L684.815 170.048 684.965 169.776 685.003 169.688 685.136 169.433C685.372 168.943 685.541 168.55 685.641 168.257L685.656 168.171 685.706 168.055 685.685 168.001 685.741 167.675 685.566 167.691ZM579.929 159.018C580.334 159.125 581.486 159.74 584.317 161.371 586.308 162.518 589.66 165.376 591.11 167.164 595.159 172.156 597.019 176.81 597.019 181.956 597.019 185.611 596.062 191.645 594.907 195.274 594.457 196.689 594.047 198.128 593.996 198.472 593.944 198.816 593.802 199.201 593.678 199.327 593.555 199.454 593.454 199.912 593.454 200.345 593.454 200.562 593.394 200.852 593.298 201.146L592.933 201.942 597.513 199.616C600.017 198.345 602.971 196.957 604.087 196.55 606.434 195.695 606.144 195.525 608.441 199.118 609.201 200.306 610.041 201.261 610.307 201.24 610.574 201.218 612.323 200.862 614.195 200.449 616.066 200.035 618.545 199.513 619.704 199.289 620.862 199.063 622.722 198.679 623.836 198.433L625.861 197.987 625.861 194.582 625.861 191.177 636.313 191.345C642.061 191.436 647.109 191.584 647.529 191.674 648.274 191.83 648.288 191.894 648.038 194.063 647.897 195.289 647.771 196.739 647.759 197.286L647.737 198.28 656.972 201.504C662.052 203.278 666.327 204.738 666.473 204.749 666.75 204.771 669.287 199.441 669.287 198.839 669.287 198.648 669.437 198.397 669.619 198.281 670.008 198.035 678.607 202.353 679.556 203.304L680.053 203.708 679.853 202.723C679.574 201.744 678.974 199.447 678.519 197.618 678.065 195.79 677.26 192.576 676.731 190.477 676.013 187.628 675.769 185.906 675.769 183.683 675.769 180.841 676.49 176.697 677.102 176.024 677.26 175.851 677.389 175.512 677.389 175.271 677.389 174.586 680.248 169.879 681.838 167.945 683.097 166.413 685.633 164.223 687.604 162.964 692.02 160.144 693.593 159.392 693.593 160.102 693.593 160.223 692.742 161.681 691.702 163.344 690.056 165.973 689.293 167.446 688.07 170.356 687.386 171.98 687.116 173.924 687.118 177.171 687.12 179.915 687.286 181.196 687.89 183.156 688.881 186.375 689.763 188.319 690.981 189.972 691.52 190.703 692.133 191.638 692.343 192.049 692.553 192.461 692.847 192.798 693.058 193.104 693.269 193.411 693.872 194.613 694.609 195.865 695.98 198.192 698.778 204.846 699.022 205.97 699.267 207.094 699.378 208.029 699.617 209.172 699.856 210.314 700.057 213.002 700.063 215.144 700.071 217.755 700.293 218.847 700.174 219.357L699.979 219.625 700.227 219.744C701.332 220.725 705.028 225.89 707.098 229.033 708.675 231.427 712.39 238.442 712.39 239.026 712.39 239.378 711.456 239.976 709.653 240.78 708.148 241.45 706.745 241.999 706.537 241.999 706.305 241.999 706.227 242.292 706.337 242.747 706.689 244.206 710.935 256.91 711.141 257.121 711.256 257.239 712.897 257.077 714.788 256.76 716.678 256.444 718.292 256.256 718.375 256.341 718.965 256.946 720.401 276.469 719.893 276.989 719.672 277.216 718.496 277.172 716.286 276.853 714.029 276.528 712.927 276.489 712.756 276.728 712.567 276.989 709.871 290.928 709.67 292.678 709.651 292.848 711.312 293.611 713.362 294.373 716.487 295.534 717.106 295.879 717.197 296.509 717.324 297.392 715.94 302.151 714.727 305.002 713.637 307.563 710.178 314.069 709.768 314.329 709.595 314.439 707.963 313.622 706.142 312.515L702.829 310.502 701.962 311.575C700.019 313.978 691.648 325.208 691.648 325.411 691.648 325.532 692.813 326.818 694.236 328.269L696.824 330.908 695.938 331.867C693.254 334.769 682.306 343.739 681.458 343.731 681.27 343.729 680.025 342.158 678.693 340.24 677.359 338.322 676.139 336.752 675.981 336.752 675.824 336.752 674.7 337.43 673.486 338.258 670.922 340.007 666.475 342.2 662.32 343.766 660.716 344.37 659.372 344.879 659.334 344.897 659.296 344.915 659.692 346.789 660.215 349.063 660.738 351.336 661.061 353.301 660.933 353.429 660.566 353.795 653.554 355.619 650.329 356.187 646.993 356.775 639.422 357.235 639.085 356.87 638.961 356.736 638.947 354.848 639.054 352.674 639.165 350.399 639.123 348.719 638.955 348.717 638.597 348.711 628.949 347.849 625.375 347.503 623.949 347.365 622.568 347.246 622.305 347.239 621.936 347.228 621.704 348.192 621.283 351.487 620.983 353.832 620.657 355.834 620.557 355.936 619.892 356.618 601.54 350.98 601.561 350.1 601.563 349.981 602.221 348.029 603.023 345.761 603.825 343.493 604.442 341.615 604.395 341.588 602.476 340.475 590.383 333.673 589.637 333.286 589.052 332.983 588.429 332.827 588.251 332.94 588.074 333.052 587.054 334.48 585.984 336.112 584.914 337.744 583.829 339.08 583.572 339.08 582.892 339.08 578.106 334.752 572.637 329.193 568.777 325.268 567.935 324.25 568.239 323.874 568.446 323.618 569.904 322.503 571.479 321.397 573.054 320.29 574.421 319.254 574.517 319.095 574.694 318.802 564.893 303.391 564.285 303.005 564.103 302.89 562.43 303.613 560.567 304.612 558.129 305.918 557.094 306.32 556.876 306.047 556.387 305.435 554.316 299.792 553.415 296.62 552.465 293.274 551.731 289.872 551.453 287.536L551.261 285.922 552.994 285.426C553.947 285.154 555.602 284.747 556.671 284.522 557.741 284.297 558.763 283.999 558.944 283.859 559.165 283.69 559.149 281.944 558.894 278.512 558.686 275.71 558.413 271.659 558.287 269.511L558.058 265.604 554.529 265.604 551 265.604 551 264.151C551 261.564 552.579 252.999 553.842 248.732L554.359 246.986 555.839 247.01C556.653 247.024 558.121 247.157 559.102 247.306 561.216 247.628 561.262 247.592 562.487 244.659 562.982 243.47 564.401 240.291 565.64 237.594 566.878 234.898 567.815 232.565 567.722 232.411 567.629 232.257 566.521 231.42 565.257 230.551 563.251 229.169 563.013 228.901 563.372 228.42 566.05 224.826 573.082 217.509 573.426 217.909L573.445 217.952 573.073 216.07C572.488 211.648 573.854 204.945 576.29 200.278 576.588 199.708 576.805 199.323 576.941 199.132L577.053 199.146 576.561 200.517C575.901 202.466 575.303 204.505 575.025 206.152L574.93 207.071 574.912 207.144 574.856 207.78 574.551 210.709 574.557 211.175 574.499 211.834 574.592 213.994 574.612 215.639 574.686 216.179 574.706 216.642 574.878 217.587 575.287 220.581C575.622 222.19 576.073 223.741 576.652 225.174 577.438 227.117 578.507 229.011 579.687 230.744L580.313 231.525 580.727 232.09C581.065 232.52 581.454 232.989 581.873 233.477L581.92 233.528 583.381 235.349C584.816 236.871 587.579 239.42 588.208 239.814 588.676 240.107 588.699 240.111 588.869 239.9L588.862 239.875 588.912 239.844C588.929 239.734 588.876 239.567 588.749 239.34L588.69 239.256 588.665 239.166C588.414 238.773 587.964 238.205 587.264 237.383L586.342 236.246 584.589 233.959 583.666 232.66C582.667 231.137 581.82 229.592 580.984 227.808L578.922 222.371 578.815 221.92 577.815 216.997C577.661 215.46 577.661 210.083 577.815 208.133 577.959 206.303 578.209 205.018 578.841 202.843 580.1 198.516 581.513 195.167 583.587 191.598 584.424 190.158 585.132 188.831 585.724 187.581L586.077 186.708 586.245 186.381 586.389 185.934 587.161 184.025 587.661 181.98 587.811 181.512 587.833 181.275 587.971 180.708C588.145 179.618 588.226 178.532 588.226 177.412L588.214 177.101 588.241 176.81 588.186 176.398 588.127 174.92C588.057 174.153 587.946 173.433 587.782 172.71L587.627 172.184 587.598 171.967 587.306 171.096 587.124 170.483 586.985 170.142 586.947 170.029 586.777 169.633 586.086 167.941C585.745 167.178 585.412 166.482 585.097 165.87L584.741 165.235 584.681 165.113 584.595 164.974 584.214 164.295 583.955 163.94 583.73 163.576 583.594 163.446 583.496 163.312 583.385 163.244 583.179 163.046 583.057 163.047 583.003 163.014 582.998 163.047 582.876 163.047C582.818 163.133 582.805 163.302 582.839 163.552L582.899 163.795 582.888 163.88 583.03 164.325 583.083 164.538 583.119 164.6 583.22 164.916 583.59 165.825 583.569 165.781C583.277 165.355 582.655 164.7 582.354 164.311 581.953 163.793 581.441 163.071 581.215 162.706 580.99 162.342 580.517 161.595 580.164 161.047 579.812 160.498 579.727 159.292 579.739 159.06 579.742 159.002 579.794 158.982 579.929 159.018Z" fill="#FFFFFF" fill-rule="evenodd"/></g></svg>