<svg width="720" height="720" xmlns="http://www.w3.org/2000/svg" xmlns:xlink="http://www.w3.org/1999/xlink" overflow="hidden"><defs><clipPath id="clip0"><rect x="0" y="0" width="720" height="720"/></clipPath></defs><g clip-path="url(#clip0)"><rect x="0" y="0" width="720" height="720" fill="#000000" fill-opacity="0"/><path d="M327.269 523.277C327.269 537.922 327.269 552.566 327.269 567.211 337.738 567.211 348.207 567.211 358.675 567.211 367.649 567.211 374.421 565.402 378.993 561.786 383.566 558.169 385.852 552.831 385.852 545.774 385.852 538.099 383.566 532.43 378.993 528.769 374.421 525.108 367.478 523.277 358.163 523.277 347.865 523.277 337.567 523.277 327.269 523.277ZM31.9193 523.277C31.9193 537.922 31.9193 552.566 31.9193 567.211 42.3881 567.211 52.857 567.211 63.3259 567.211 72.2991 567.211 79.0718 565.402 83.644 561.786 88.216 558.169 90.5021 552.831 90.5021 545.774 90.5021 538.099 88.216 532.43 83.644 528.769 79.0718 525.108 72.1282 523.277 62.8131 523.277 52.5152 523.277 42.2172 523.277 31.9193 523.277ZM509.769 459.891C501.778 483.182 493.788 506.471 485.797 529.762 502.12 529.762 518.443 529.762 534.766 529.762 526.903 506.471 519.041 483.182 511.179 459.891 510.709 459.891 510.239 459.891 509.769 459.891ZM327.269 456.715C327.269 470.434 327.269 484.151 327.269 497.87 336.199 497.87 345.13 497.87 354.061 497.87 363.29 497.87 370.084 496.04 374.443 492.379 378.801 488.717 380.98 483.535 380.98 476.829 380.98 470.037 378.801 464.986 374.443 461.678 370.084 458.37 363.461 456.715 354.573 456.715 345.472 456.715 336.37 456.715 327.269 456.715ZM31.9193 456.715C31.9193 470.434 31.9193 484.151 31.9193 497.87 40.8499 497.87 49.7804 497.87 58.711 497.87 67.9407 497.87 74.7347 496.04 79.0931 492.379 83.4517 488.717 85.6309 483.535 85.6309 476.829 85.6309 470.037 83.4517 464.986 79.0931 461.678 74.7347 458.37 68.1116 456.715 59.2236 456.715 50.1223 456.715 41.0208 456.715 31.9193 456.715ZM295.35 430.911C316.287 430.911 337.225 430.911 358.163 430.911 369.358 430.911 379.058 432.653 387.262 436.138 395.466 439.623 401.79 444.629 406.234 451.158 410.678 457.686 412.9 465.361 412.9 474.183 412.9 482.476 410.485 489.776 405.657 496.084 400.828 502.391 393.97 506.692 385.082 508.986 385.082 509.119 385.082 509.251 385.082 509.383 395.509 511.147 403.734 515.426 409.759 522.219 415.784 529.012 418.796 537.569 418.796 547.891 418.796 562.536 413.797 573.717 403.798 581.436 393.799 589.155 379.314 593.016 360.342 593.016 338.678 593.016 317.014 593.016 295.35 593.016 295.35 538.98 295.35 484.945 295.35 430.911ZM153.144 430.911C187.585 430.911 222.025 430.911 256.465 430.911 256.465 439.953 256.465 448.996 256.465 458.039 232.836 458.039 209.206 458.039 185.576 458.039 185.576 471.581 185.576 485.122 185.576 498.664 204.377 498.664 223.179 498.664 241.98 498.664 241.98 507.398 241.98 516.132 241.98 524.866 223.179 524.866 204.377 524.866 185.576 524.866 185.576 538.539 185.576 552.213 185.576 565.888 209.462 565.888 233.348 565.888 257.234 565.888 257.234 574.93 257.234 583.973 257.234 593.016 222.538 593.016 187.841 593.016 153.144 593.016 153.144 538.98 153.144 484.945 153.144 430.911ZM0 430.911C20.9376 430.911 41.8754 430.911 62.8131 430.911 74.0083 430.911 83.7079 432.653 91.9121 436.138 100.116 439.623 106.44 444.629 110.884 451.158 115.328 457.686 117.55 465.361 117.55 474.183 117.55 482.476 115.136 489.776 110.307 496.084 105.479 502.391 98.6208 506.692 89.733 508.986 89.733 509.119 89.733 509.251 89.733 509.383 100.159 511.147 108.385 515.426 114.41 522.219 120.434 529.012 123.447 537.569 123.447 547.891 123.447 562.536 118.448 573.717 108.449 581.436 98.4498 589.155 83.9644 593.016 64.9922 593.016 43.3282 593.016 21.664 593.016 0 593.016 0 538.98 0 484.945 0 430.911ZM659.11 428.397C670.903 428.397 682.056 430.712 692.567 435.344 703.079 439.975 711.668 446.129 718.333 453.804 711.625 460.641 704.916 467.479 698.208 474.315 693.593 468.757 687.888 464.479 681.094 461.479 674.3 458.48 667.228 456.98 659.879 456.98 652.7 456.98 647.167 458.679 643.278 462.075 639.39 465.471 637.446 469.684 637.446 474.712 637.446 479.212 638.856 482.829 641.676 485.563 644.496 488.299 649.538 490.813 656.802 493.106 662.998 495.091 669.194 497.076 675.39 499.061 685.901 502.413 694.405 506.273 700.9 510.64 707.395 515.007 712.202 520.234 715.321 526.321 718.44 532.408 720 539.686 720 548.155 720 556.889 717.906 564.785 713.719 571.843 709.531 578.9 703.186 584.524 694.682 588.714 686.179 592.906 675.732 595 663.34 595 650.692 595 638.877 592.949 627.896 588.847 616.914 584.745 607.15 578.856 598.604 571.181 604.501 562.668 610.398 554.155 616.294 545.641 623.217 552.699 630.63 557.926 638.535 561.322 646.44 564.719 654.495 566.417 662.699 566.417 679.535 566.417 687.953 560.506 687.953 548.685 687.953 543.744 686.35 539.708 683.145 536.577 679.941 533.445 674.193 530.467 665.904 527.644 658.597 525.219 651.29 522.792 643.983 520.366 631.164 516.132 621.593 510.375 615.269 503.097 608.945 495.819 605.783 486.446 605.783 474.977 605.783 466.773 607.898 459.12 612.128 452.017 616.358 444.916 622.512 439.203 630.588 434.881 638.664 430.558 648.171 428.397 659.11 428.397ZM492.078 428C504.085 428 516.093 428 528.1 428 548.824 483.005 569.548 538.011 590.272 593.016 578.906 593.016 567.539 593.016 556.173 593.016 551.986 580.664 547.798 568.313 543.611 555.963 521.348 555.963 499.086 555.963 476.824 555.963 472.593 568.313 468.363 580.664 464.133 593.016 452.639 593.016 441.144 593.016 429.65 593.016 450.459 538.011 471.269 483.005 492.078 428Z" fill="#FFFFFF" fill-rule="evenodd"/><path d="M168.083 13.4792C186.418 10.8297 175.947-2.30467 147.508 0.375328 162.663-0.064462 177.256 5.68442 168.083 13.4792ZM133.969 61.9561 132.395 61.0254C117.689 50.7855 107.177 35.7075 102.065 22.6549L100.336 17.2742 97.7595 16.8753C75.5693 13.203 53.635 8.0167 38.2552 3.84305 29.6551 10.0728 26.9351 23.8926 27.8759 33.5083 59.6169 47.0724 96.2564 59.6138 129.848 61.8232ZM144.011 62.0176 149.574 61.8232C162.397 60.9024 174.474 58.0178 185.293 52.5961 187.389 37.467 186.295 24.5781 181.458 10.8604 174.198 22.0923 148.643 23.1152 119.786 19.9442L110.501 18.778 112.29 24.9361C117.209 36.6692 129.633 49.8242 142.119 60.473ZM35.5555 88.9923 32.9684 84.5527C27.1089 74.303 22.2618 64.1757 30.5755 64.0736L31.2812 64.1145 31.4038 64.3907C33.8989 68.9122 38.9913 72.8913 43.6645 72.6459L44.227 72.5127 42.5807 76.5024C41.2308 79.5712 39.5129 82.9879 37.3757 86.4248ZM201 135.741 200.847 128.672C199.578 105.298 194.66 84.9414 185.671 60.831 162.847 71.8684 133.877 72.0628 105.071 66.9684L96.9621 65.3626 98.9456 67.756C110.797 80.1645 142.896 93.2478 163.225 102.935 179.894 110.894 192.605 121.123 200.182 134.166ZM199.231 175.461C199.538 172.526 199.803 169.651 200.029 166.838L200.489 160.383 200.448 158.082C199.077 136.958 186.725 120.959 151.629 105.186 128.58 94.8335 96.7065 82.1796 87.4926 65.3829L86.419 62.9279 83.5866 62.2529C62.3373 56.7187 42.0692 49.0056 25.4421 41.4563 18.9486 45.6606 20.6155 53.4453 23.9389 57.169L24.2252 57.4245 22.8856 57.8643C18.6725 59.5112 14.2141 62.6518 14.5924 68.5951 14.8889 73.1367 23.1208 83.4277 28.561 94.2912L29.4813 96.4189 26.4851 99.5388C19.7872 105.411 11.1197 109.687 0.000104987 109.861 4.82877 112.081 9.58887 112.888 14.1528 112.643 19.102 112.377 23.8265 110.853 28.1622 108.51L32.7025 105.513 33.0604 107.262C33.357 109.359 33.3774 111.395 33.0195 113.328 32.0787 118.453 24.8797 128.959 19.2656 134.196 22.8856 132.59 46.763 118.32 42.5601 102.659 42.3862 101.994 42.1104 101.247 41.7626 100.429L40.7605 98.3215 44.5542 93.7698C46.6708 90.8541 48.4502 87.8365 49.8102 84.8698L51.1192 81.5353 51.6919 82.1695C99.4163 132.283 167.766 115.937 199.231 175.461ZM181.274 198.017C189.036 193.025 192.124 189.159 197.267 182.387 194.373 176.28 190.631 170.633 185.201 165.549 187.543 175.901 185.957 187.195 181.274 198.017Z" fill="#FFFFFF" fill-rule="evenodd" transform="matrix(1 0 0 -1 1 357)"/><path d="M379.796 241.668C382.633 241.992 386.281 246.119 388.945 259.38 392.812 278.628 390.158 288.846 394.579 289.125 401.183 289.54 397.911 247.104 406.343 245.689 414.195 244.372 410.83 267.336 408.912 284.924 408.096 292.414 407.54 305.861 418.23 307.171 424.333 307.919 435.236 274.511 448.197 288.005 446.504 292.371 443.158 294.402 439.776 299.704 431.604 312.517 432.078 315.115 429.251 320.643 426.424 326.171 419.417 334.686 415.011 342.641 414.73 344.71 414.646 346.756 414.685 348.787L415.062 354.288 412.351 354.989C405.939 356.307 399.3 357 392.5 357L382.975 356.517 380.409 350.855C378.089 346.743 374.922 342.403 372.043 338.161 366.285 329.677 367.585 319.326 361.022 308.291 354.83 297.754 338.67 283.049 342.448 276.679 345.461 271.597 354.356 283.711 358.298 289 361.848 293.764 368.307 300.212 369.814 299.455 372.182 298.158 367.858 294.207 365.542 287.382 363.225 280.558 355.327 260.578 355.914 258.508 357.533 252.793 363.178 250.429 369.814 269.585 376.449 288.741 382.805 298.003 381.082 282.529 379.101 270.581 377.728 254.277 375.51 246.778 374.932 244.825 376.959 241.345 379.796 241.668ZM392.5 159C446.9 159 491 203.324 491 258 491 299.007 466.194 334.191 430.841 349.22L423.236 352.018 422.71 344.325C422.649 341.208 422.778 338.069 423.209 334.894 429.971 322.687 440.723 309.621 445.061 301.138 449.4 292.655 448.672 288.668 461.213 269.005 466.402 260.869 471.537 257.754 474.134 251.053 454.245 230.348 437.515 281.612 428.15 280.464 411.746 278.454 412.598 257.82 413.851 246.326 416.793 219.336 421.958 184.098 409.908 186.12 396.969 188.29 401.99 253.41 391.857 252.772 385.073 252.345 389.144 236.665 383.211 207.127 375.035 166.43 360.82 181.794 362.594 187.791 365.999 199.297 368.104 224.316 371.145 242.65 373.789 266.395 364.035 252.183 353.853 222.788 343.672 193.393 335.009 197.02 332.524 205.79 331.624 208.966 343.743 239.626 347.298 250.098 350.853 260.57 357.487 266.634 353.853 268.623 351.541 269.785 341.629 259.891 336.182 252.581 330.133 244.464 316.483 225.875 311.859 233.674 306.063 243.449 330.861 266.013 340.362 282.183 350.433 299.117 348.438 315 357.274 328.019 362.796 336.155 369.011 344.528 372.509 352.158L373.673 355.146 372.649 354.989C327.764 345.757 294 305.842 294 258 294 203.324 338.1 159 392.5 159Z" fill="#FFFFFF" fill-rule="evenodd"/><path d="M671.003 293.124C669.978 292.983 669.034 293.872 667.151 295.648 665.755 296.966 663.775 298.731 662.752 299.572 661.729 300.412 661.01 301.293 661.155 301.529 661.3 301.765 662.296 302.057 663.369 302.179 664.442 302.301 665.513 302.594 665.749 302.832 666.596 303.684 667.933 311.456 668.623 319.529 669.07 324.76 669.437 327.388 669.684 327.117 669.753 327.043 670.14 326.023 670.544 324.852 671.072 323.324 671.37 320.543 671.598 314.993 671.967 306.041 672.162 305.526 675.615 304.37 678.231 303.494 678.643 303.175 678.899 301.827 679.067 300.94 678.459 300.077 675.34 296.772 673.133 294.434 672.028 293.265 671.003 293.124ZM658.172 230.418C659.707 230.347 661.117 230.465 661.465 230.815 661.832 231.184 661.113 232.261 658.548 235.186 655.905 238.198 654.971 239.613 654.376 241.506 653.472 244.378 652.793 244.623 649.297 243.342 646.027 242.144 642.877 240.308 641.724 238.929 640.443 237.398 640.447 237.323 641.874 235.947 642.667 235.184 644.617 234.331 647.877 233.324 650.533 232.504 653.345 231.527 654.125 231.155 654.975 230.749 656.636 230.489 658.172 230.418ZM711.279 219.607C712.766 219.231 714.891 220.475 717.098 223.013 719.474 225.746 720.058 227.904 719.996 233.726 719.939 239.083 719.479 241.184 717.832 243.62 716.707 245.283 710.121 251.491 702.259 258.298 695.618 264.047 694.636 264.706 692.43 264.899 690.578 265.061 690.276 264.941 688.406 263.302 687.294 262.328 685.532 260.478 684.491 259.193 682.846 257.161 682.598 256.592 682.598 254.848 682.598 252.17 683.253 251.138 690.428 242.493 691.47 241.238 694.249 238.025 697.669 234.122 708.338 221.946 710.299 219.854 711.279 219.607ZM689.756 197.743C690.881 197.743 692.544 198.391 695.337 199.915 702.702 203.935 707.347 207.903 708.382 211.058 708.816 212.382 708.766 212.852 708.015 214.512 707.536 215.569 707.144 216.595 707.144 216.794 707.144 217.512 702.693 224.456 699.565 228.616 695.416 234.134 682.201 247.699 679.888 248.814 677.139 250.14 674.384 250.229 670.96 249.102 666.811 247.736 665.329 246.908 663.043 244.678 660.485 242.184 660.218 240.992 661.623 238.338 662.219 237.21 662.707 236.124 662.707 235.924 662.707 235.724 663.061 235.052 663.492 234.43 663.924 233.808 664.41 232.746 664.573 232.069 664.856 230.894 668.711 225.127 672.86 219.673 674.623 217.355 675.898 215.579 681.685 207.375 682.696 205.942 684.565 203.189 685.838 201.257 688.06 197.885 688.218 197.743 689.756 197.743ZM615.142 189.321C615.811 189.202 616.667 189.228 618.162 189.321 620.907 189.492 622.137 189.843 625.676 191.467 628.004 192.534 630.194 193.531 630.543 193.681 630.893 193.831 633.273 195.095 635.833 196.49 638.394 197.885 644.773 201.156 650.01 203.76 659.847 208.65 661.291 209.52 662.163 211.086 662.748 212.136 662.836 218.152 662.312 221.361 662.05 222.967 661.654 223.734 660.662 224.555 658.201 226.59 646.792 230.106 642.647 230.106 639.404 230.106 638.027 229.385 633.608 225.37 630.437 222.49 629.7 222.015 628.39 222.015 626.425 222.015 625.934 222.596 623.579 227.701 620.319 234.767 620.75 235.585 629.908 239.701 630.607 240.015 632.471 240.852 634.051 241.562 638.985 243.777 641.866 247.016 651.7 261.404 654.101 264.917 657.083 269.266 658.328 271.069 659.573 272.872 660.591 274.539 660.591 274.774 660.591 275.009 660.851 275.354 661.169 275.542 661.487 275.729 662.069 276.517 662.463 277.293 662.858 278.069 663.407 278.629 663.685 278.538 664.62 278.227 664.445 276.693 663.201 274.313 661.329 270.733 658.412 265.768 657.618 264.811 657.23 264.342 655.902 262.139 654.667 259.914 653.432 257.689 651.975 255.259 651.428 254.513 650.882 253.767 650.434 253.039 650.434 252.894 650.434 252.749 649.958 251.925 649.376 251.063 648.794 250.201 648.318 249.039 648.318 248.481 648.318 247.495 648.394 247.472 650.963 247.698 654.338 247.994 663.93 250.175 669.653 251.949 672.918 252.96 675.532 254.902 683.754 262.421 686.368 264.811 689.288 267.213 690.242 267.759L691.978 268.751 694.316 267.846C696.219 267.109 697.861 265.781 703.132 260.717 710.087 254.035 712.105 252.493 713.296 252.952 713.983 253.218 714.021 253.842 713.785 260.942 713.393 272.664 712.479 278.287 709.676 286.203 707.628 291.986 705.573 295.599 700.649 302.07 699.49 303.593 697.999 306.039 697.335 307.506 694.823 313.054 694.792 313.362 694.503 335.164 694.277 352.225 694.141 355.365 693.602 355.898 693.058 356.435 687.938 356.568 657.805 356.828 624.665 357.115 622.627 357.089 622.361 356.394 621.815 354.963 622.088 348.928 622.885 344.79 623.328 342.49 623.823 339.363 623.984 337.84 624.146 336.317 624.544 333.77 624.869 332.179 625.195 330.587 625.753 326.754 626.109 323.662 626.465 320.569 626.853 317.725 626.971 317.341 627.088 316.957 627.349 313.604 627.55 309.889 627.983 301.867 628.295 302.707 622.16 295.363 615.16 286.983 612.152 282.733 598.726 262.256 587.063 244.467 584.017 239.441 584 237.962 583.98 236.202 589.078 226.612 595.705 215.939 598.353 211.674 604.482 202.169 610.139 193.554 610.96 192.303 612.362 190.793 613.255 190.199 613.995 189.706 614.474 189.441 615.142 189.321ZM668.178 175.256C670.679 175.407 671.43 175.697 675.615 178.122 682.48 182.101 683.717 183.118 685.199 186.003 687.682 190.837 686.762 194.809 681.255 203.022 676.9 209.518 671.132 216.771 668.651 218.871 667.439 219.898 667.401 219.902 666.964 219.08 666.718 218.618 666.516 216.783 666.516 215.004 666.516 209.138 664.849 206.906 657.884 203.443 652.319 200.677 652.127 200.526 652.127 198.941 652.127 197.476 652.38 196.958 655.315 192.421 656.527 190.547 658.766 186.507 660.292 183.444 661.817 180.38 663.589 177.246 664.23 176.48 665.364 175.124 665.469 175.092 668.178 175.256ZM642.415 159C643.557 158.989 652.523 164.223 655.285 166.513 658.76 169.393 659.914 171.286 659.872 174.04 659.846 175.811 659.301 177.232 656.594 182.589 649.811 196.013 647.419 198.003 640.912 195.633 639.748 195.209 636.415 193.589 633.506 192.031 630.596 190.475 627.586 188.871 626.817 188.468 626.048 188.066 625.054 187.347 624.608 186.871 623.848 186.06 623.84 185.927 624.477 184.742 624.851 184.047 625.447 182.903 625.801 182.201 626.155 181.498 628.451 177.953 630.904 174.323 633.357 170.693 636.584 165.902 638.075 163.678 640.893 159.472 641.322 159.011 642.415 159Z" fill="#FFFFFF" fill-rule="evenodd"/></g></svg>