<svg width="720" height="720" xmlns="http://www.w3.org/2000/svg" xmlns:xlink="http://www.w3.org/1999/xlink" overflow="hidden"><defs><clipPath id="clip0"><rect x="0" y="0" width="720" height="720"/></clipPath></defs><g clip-path="url(#clip0)"><rect x="0" y="0" width="720" height="720" fill="#000000" fill-opacity="0"/><path d="M265.232 159.135 265.232 0.134596 318.231 0.134596 318.231 159.135ZM0.230676 0.134596 53.229 0.134596 53.229 159.135 0.230676 159.135Z" fill="#FFFFFF" fill-rule="evenodd" transform="matrix(1 0 0 -1 0 650)"/><path d="M41.8295 49.5772C41.8295 76.9131 63.8966 99.077 91.122 99.077 40.8643 99.077 0.118281 76.9131 0.118281 49.5772 0.118281 22.2413 40.8643 0.0774132 91.122 0.0774132 63.8966 0.0774132 41.8295 22.2413 41.8295 49.5772M91.1223 99.0775 91.1223 99.0775C118.344 99.0775 140.411 76.9135 140.411 49.5776 140.411 22.2417 118.344 0.0777863 91.1223 0.0777863 141.38 0.0777863 182.118 22.2417 182.118 49.5776 182.118 76.9135 141.38 99.0775 91.1223 99.0775" fill="#FFFFFF" fill-rule="evenodd" transform="matrix(1 0 0 -1 68 620)"/><path d="M1.60529 1.12438C55.5174 122.012 109.43 242.899 163.342 363.786 163.518 363.78 163.694 363.775 163.87 363.766 217.782 242.88 271.694 121.992 325.605 1.10452 325.501 0.998175 325.395 0.891829 325.287 0.785819 324.791 1.08669 324.276 1.36803 323.794 1.69145 312.249 9.4093 300.716 17.1443 289.163 24.8504 273.537 35.274 257.888 45.663 242.264 56.0907 224.484 67.9587 206.719 79.848 188.953 91.7379 180.908 97.1219 172.849 102.486 164.873 107.97 163.507 108.909 162.767 108.187 161.849 107.572 150.214 99.7815 138.597 91.9654 126.956 84.1846 110.621 73.2666 94.2665 62.3762 77.9244 51.4673 56.4062 37.1031 34.892 22.7339 13.3768 8.36468 9.60645 5.84636 5.84213 3.31895 2.07478 0.795915 1.91806 0.905291 1.76167 1.015 1.60529 1.12438" fill="#FFFFFF" fill-rule="evenodd" transform="matrix(1 0 0 -1 198 433)"/><path d="M680.396 549.141C676.896 558.749 673.396 568.357 669.896 577.965 676.967 577.965 684.038 577.965 691.108 577.965 687.538 568.357 683.967 558.749 680.396 549.141ZM586.919 544.16C586.919 561.31 586.919 578.459 586.919 595.609 590.825 595.609 594.732 595.609 598.639 595.609 603.022 595.609 606.186 595.361 608.131 594.867 610.677 594.231 612.789 593.153 614.468 591.635 616.147 590.116 617.518 587.616 618.578 584.137 619.639 580.658 620.169 575.916 620.169 569.911 620.169 563.906 619.639 559.296 618.578 556.082 617.518 552.867 616.033 550.36 614.123 548.558 612.214 546.757 609.793 545.538 606.859 544.902 604.667 544.408 600.371 544.16 593.972 544.16 591.621 544.16 589.27 544.16 586.919 544.16ZM672.283 531.02C677.815 531.02 683.348 531.02 688.881 531.02 699.258 556.912 709.634 582.804 720.01 608.696 714.318 608.696 708.626 608.696 702.935 608.696 700.672 602.814 698.409 596.933 696.146 591.052 685.788 591.052 675.429 591.052 665.07 591.052 662.932 596.933 660.793 602.814 658.654 608.696 653.104 608.696 647.553 608.696 642.002 608.696 652.096 582.804 662.19 556.912 672.283 531.02ZM571.222 531.02C580.785 531.02 590.348 531.02 599.911 531.02 606.381 531.02 611.313 531.515 614.707 532.504 619.268 533.846 623.174 536.23 626.426 539.657 629.679 543.083 632.154 547.278 633.851 552.241 635.548 557.203 636.396 563.323 636.396 570.6 636.396 576.993 635.601 582.504 634.01 587.131 632.065 592.783 629.29 597.357 625.684 600.854 622.962 603.503 619.285 605.57 614.654 607.053 611.189 608.148 606.558 608.696 600.76 608.696 590.914 608.696 581.068 608.696 571.222 608.696 571.222 582.804 571.222 556.912 571.222 531.02ZM492.54 531.02C497.772 531.02 503.004 531.02 508.237 531.02 508.237 545.043 508.237 559.067 508.237 573.09 508.237 579.766 508.431 584.093 508.82 586.071 509.492 589.251 511.091 591.803 513.62 593.728 516.147 595.653 519.603 596.615 523.987 596.615 528.442 596.615 531.8 595.706 534.063 593.887 536.325 592.068 537.686 589.833 538.146 587.184 538.606 584.535 538.835 580.137 538.835 573.991 538.835 559.667 538.835 545.344 538.835 531.02 544.068 531.02 549.3 531.02 554.532 531.02 554.532 544.62 554.532 558.219 554.532 571.818 554.532 581.144 554.108 587.731 553.26 591.582 552.411 595.432 550.847 598.681 548.567 601.331 546.286 603.98 543.237 606.091 539.419 607.663 535.6 609.234 530.616 610.02 524.464 610.02 517.04 610.02 511.41 609.164 507.574 607.451 503.738 605.737 500.707 603.512 498.479 600.774 496.252 598.037 494.785 595.167 494.078 592.164 493.052 587.714 492.54 581.144 492.54 572.454 492.54 558.643 492.54 544.831 492.54 531.02ZM402.01 531.02C409.841 531.02 417.672 531.02 425.503 531.02 430.205 548.682 434.907 566.343 439.609 584.005 444.258 566.343 448.907 548.682 453.556 531.02 461.404 531.02 469.253 531.02 477.101 531.02 477.101 556.912 477.101 582.804 477.101 608.696 472.24 608.696 467.379 608.696 462.518 608.696 462.518 588.315 462.518 567.933 462.518 547.551 457.374 567.933 452.23 588.315 447.086 608.696 442.048 608.696 437.01 608.696 431.973 608.696 426.846 588.315 421.72 567.933 416.594 547.551 416.594 567.933 416.594 588.315 416.594 608.696 411.733 608.696 406.871 608.696 402.01 608.696 402.01 582.804 402.01 556.912 402.01 531.02Z" fill="#FFFFFF" fill-rule="evenodd"/></g></svg>