<svg width="720" height="720" xmlns="http://www.w3.org/2000/svg" xmlns:xlink="http://www.w3.org/1999/xlink" overflow="hidden"><defs><clipPath id="clip0"><rect x="0" y="0" width="720" height="720"/></clipPath></defs><g clip-path="url(#clip0)"><rect x="0" y="0" width="720" height="720" fill="#000000" fill-opacity="0"/><path d="M-0.0337455 272.985-0.0337455 349.985 23.4219 349.985 23.4219 329.225 35.8278 329.225C56.24 329.225 67.9662 318.68 67.9662 300.337 67.9662 282.87 56.237 272.985 35.8278 272.985ZM23.4219 294.506 34.3858 294.506C39.067 294.506 42.8666 298.243 42.8666 302.856 42.8666 307.469 39.0701 311.206 34.3858 311.206 34.3858 311.206 34.3858 311.206 34.3858 311.206L23.4219 311.206Z" fill="#FFFFFF" fill-rule="evenodd"/><path d="M83.9654 272.985 83.9654 349.985 147.966 349.985 147.966 330.061 108.186 330.061 108.186 320.261 145.292 320.261 145.292 302.711 108.186 302.711 108.186 292.905 147.966 292.905 147.966 272.985Z" fill="#FFFFFF" fill-rule="evenodd"/><path d="M165.964 272.985 165.964 349.985 191.291 349.985 191.291 329.225 196.803 329.225 208.653 349.985 239.964 349.985 223.724 324.831C232.416 320.107 237.219 311.761 237.219 300.337 237.219 282.87 224.865 272.985 203.363 272.985ZM191.291 294.506 203.03 294.506C208.046 294.506 212.114 298.243 212.114 302.856 212.114 302.856 212.114 302.856 212.114 302.856 212.114 307.469 208.049 311.206 203.033 311.206 203.03 311.206 203.03 311.206 203.03 311.206L191.291 311.206Z" fill="#FFFFFF" fill-rule="evenodd"/><path d="M278.963 349.985 278.963 272.985 253.963 272.985 253.963 349.985Z" fill="#FFFFFF" fill-rule="evenodd"/><path d="M343.501 349.985 375.963 349.985 348.668 306.225 375.67 272.985 345.773 272.985 321.591 302.642 321.591 272.985 296.962 272.985 296.962 349.985 321.591 349.985 321.591 333.206 328.216 325.476Z" fill="#FFFFFF" fill-rule="evenodd"/><path d="M540.961 294.642 540.961 272.985 468.961 272.985 468.961 294.642 492.689 294.642 492.689 349.985 517.117 349.985 517.117 294.642Z" fill="#FFFFFF" fill-rule="evenodd"/><path d="M694.89 272.905 694.89 308.612 666.479 272.905 642.732 272.905 642.732 349.905 667.492 349.905 667.492 314.105 695.976 349.904 719.732 349.904 719.658 272.905Z" fill="#FFFFFF" fill-rule="evenodd"/><path d="M249.331 368.891C228.66 368.891 213.644 378.862 213.644 393.749 213.644 400.161 215.889 404.644 219.362 407.89 232.305 419.268 259.377 417.747 255.066 425.276 251.942 430.725 223.885 418.64 223.885 418.64L210.805 435.345C219.786 440.748 234.485 446.89 247.118 446.89 267.788 446.89 282.805 436.92 282.805 422.032 282.805 415.619 280.56 411.135 277.086 407.89 264.144 396.511 237.072 398.034 241.391 390.506 244.515 385.056 269.008 395.926 269.008 395.926L282.577 378.591C273.605 373.187 261.964 368.89 249.331 368.89Z" fill="#FFFFFF" fill-rule="evenodd"/><path d="M383.283 368.89C359.381 368.89 341.783 385.231 341.783 407.672 341.783 430.222 359.381 446.89 383.283 446.89 407.186 446.89 424.783 430.114 424.783 407.672 424.783 385.34 407.186 368.89 383.283 368.89ZM383.283 390.717C392.26 390.717 399.537 398.406 399.537 407.891 399.537 417.375 392.26 425.065 383.283 425.065 374.307 425.065 367.03 417.375 367.03 407.891 367.03 398.406 374.307 390.717 383.283 390.717Z" fill="#FFFFFF" fill-rule="evenodd"/><path d="M660.233 425.135 660.233 368.984 634.959 368.984 634.959 445.984 695.959 445.984 695.959 425.138Z" fill="#FFFFFF" fill-rule="evenodd"/><path d="M410.511 272.905 378.776 349.905 406.687 349.905 410.698 340.211 437.855 340.211 441.874 349.905 469.776 349.905 438.041 272.905 424.276 272.905 424.276 306.36 430.288 321.853 418.265 321.853 424.276 306.36 424.276 272.905Z" fill="#FFFFFF" fill-rule="evenodd"/><path d="M571.041 272.985 538.959 349.985 567.171 349.985 571.233 340.291 598.686 340.291 602.748 349.985 630.959 349.985 598.878 272.985 584.959 272.985 584.959 306.438 591.039 321.931 578.885 321.931 584.959 306.438 584.959 272.985Z" fill="#FFFFFF" fill-rule="evenodd"/><path d="M78.1764 368.984 78.1764 404.74 49.7417 369.076 25.9656 369.076 25.9656 445.984 50.7581 445.984 50.7581 410.227 79.1928 445.891 102.966 445.891 102.966 368.984Z" fill="#FFFFFF" fill-rule="evenodd"/><path d="M146.698 368.984 114.965 445.984 142.87 445.984 146.887 436.29 174.042 436.29 178.06 445.984 205.965 445.984 174.232 368.984 160.465 368.984 160.465 402.436 166.479 417.93 154.457 417.93 160.465 402.436 160.465 368.984Z" fill="#FFFFFF" fill-rule="evenodd"/><path d="M324.962 445.984 324.962 368.984 299.962 368.984 299.962 445.984Z" fill="#FFFFFF" fill-rule="evenodd"/><path d="M494.121 368.984 494.121 404.69 465.714 368.984 441.961 368.984 441.961 445.984 466.729 445.984 466.729 410.185 495.208 445.984 518.961 445.984 518.887 368.984Z" fill="#FFFFFF" fill-rule="evenodd"/><path d="M562.693 368.984 530.96 445.984 558.865 445.984 562.882 436.29 590.034 436.29 594.055 445.984 621.96 445.984 590.227 368.984 576.46 368.984 576.46 402.436 582.474 417.93 570.452 417.93 576.46 402.436 576.46 368.984Z" fill="#FFFFFF" fill-rule="evenodd"/></g></svg>